{
    "accessors": {
        "accessor_100": {
            "bufferView": "bufferView_203",
            "byteOffset": 1344,
            "byteStride": 12,
            "componentType": 5126,
            "count": 16,
            "max": [
                0.995227,
                0.0975829,
                1
            ],
            "min": [
                -0.995227,
                -0.0975829,
                -1
            ],
            "type": "VEC3"
        },
        "accessor_116": {
            "bufferView": "bufferView_202",
            "byteOffset": 192,
            "byteStride": 0,
            "componentType": 5123,
            "count": 24,
            "type": "SCALAR"
        },
        "accessor_118": {
            "bufferView": "bufferView_203",
            "byteOffset": 1536,
            "byteStride": 12,
            "componentType": 5126,
            "count": 16,
            "max": [
                41.5058,
                4.32511,
                6.6
            ],
            "min": [
                35.8863,
                3.37985,
                4.85
            ],
            "type": "VEC3"
        },
        "accessor_120": {
            "bufferView": "bufferView_203",
            "byteOffset": 1728,
            "byteStride": 12,
            "componentType": 5126,
            "count": 16,
            "max": [
                0.995227,
                0.0975829,
                1
            ],
            "min": [
                -0.995227,
                -0.0975829,
                -1
            ],
            "type": "VEC3"
        },
        "accessor_136": {
            "bufferView": "bufferView_202",
            "byteOffset": 240,
            "byteStride": 0,
            "componentType": 5123,
            "count": 24,
            "type": "SCALAR"
        },
        "accessor_138": {
            "bufferView": "bufferView_203",
            "byteOffset": 1920,
            "byteStride": 12,
            "componentType": 5126,
            "count": 16,
            "max": [
                48.2804,
                4.98937,
                6.6
            ],
            "min": [
                42.661,
                4.04411,
                4.85
            ],
            "type": "VEC3"
        },
        "accessor_140": {
            "bufferView": "bufferView_203",
            "byteOffset": 2112,
            "byteStride": 12,
            "componentType": 5126,
            "count": 16,
            "max": [
                0.995227,
                0.0975829,
                1
            ],
            "min": [
                -0.995227,
                -0.0975829,
                -1
            ],
            "type": "VEC3"
        },
        "accessor_150": {
            "bufferView": "bufferView_202",
            "byteOffset": 288,
            "byteStride": 0,
            "componentType": 5123,
            "count": 4,
            "type": "SCALAR"
        },
        "accessor_152": {
            "bufferView": "bufferView_203",
            "byteOffset": 2304,
            "byteStride": 12,
            "componentType": 5126,
            "count": 3,
            "max": [
                1.81402,
                0.437124,
                13.5
            ],
            "min": [
                1.41593,
                0.398091,
                13.3
            ],
            "type": "VEC3"
        },
        "accessor_16": {
            "bufferView": "bufferView_202",
            "byteOffset": 296,
            "byteStride": 0,
            "componentType": 5123,
            "count": 3120,
            "type": "SCALAR"
        },
        "accessor_162": {
            "bufferView": "bufferView_202",
            "byteOffset": 6536,
            "byteStride": 0,
            "componentType": 5123,
            "count": 16,
            "type": "SCALAR"
        },
        "accessor_164": {
            "bufferView": "bufferView_203",
            "byteOffset": 37620,
            "byteStride": 12,
            "componentType": 5126,
            "count": 9,
            "max": [
                48.4404,
                19.0515,
                0.4
            ],
            "min": [
                0.0390332,
                5.00888,
                0.1
            ],
            "type": "VEC3"
        },
        "accessor_174": {
            "bufferView": "bufferView_202",
            "byteOffset": 6568,
            "byteStride": 0,
            "componentType": 5123,
            "count": 2,
            "type": "SCALAR"
        },
        "accessor_176": {
            "bufferView": "bufferView_203",
            "byteOffset": 37728,
            "byteStride": 12,
            "componentType": 5126,
            "count": 2,
            "max": [
                1.81402,
                0.437124,
                0.7
            ],
            "min": [
                1.41593,
                0.398091,
                0.7
            ],
            "type": "VEC3"
        },
        "accessor_18": {
            "bufferView": "bufferView_203",
            "byteOffset": 2340,
            "byteStride": 12,
            "componentType": 5126,
            "count": 1470,
            "max": [
                48.8776,
                19.4887,
                14
            ],
            "min": [
                0,
                0,
                -1.02189e-018
            ],
            "type": "VEC3"
        },
        "accessor_186": {
            "bufferView": "bufferView_202",
            "byteOffset": 6572,
            "byteStride": 0,
            "componentType": 5123,
            "count": 2,
            "type": "SCALAR"
        },
        "accessor_188": {
            "bufferView": "bufferView_203",
            "byteOffset": 37752,
            "byteStride": 12,
            "componentType": 5126,
            "count": 2,
            "max": [
                2.41116,
                0.495674,
                13.5
            ],
            "min": [
                2.41116,
                0.495674,
                13.3
            ],
            "type": "VEC3"
        },
        "accessor_198": {
            "bufferView": "bufferView_202",
            "byteOffset": 6576,
            "byteStride": 0,
            "componentType": 5123,
            "count": 2,
            "type": "SCALAR"
        },
        "accessor_20": {
            "bufferView": "bufferView_203",
            "byteOffset": 19980,
            "byteStride": 12,
            "componentType": 5126,
            "count": 1470,
            "max": [
                0.995227,
                0.995227,
                1
            ],
            "min": [
                -0.995227,
                -0.995227,
                -1
            ],
            "type": "VEC3"
        },
        "accessor_200": {
            "bufferView": "bufferView_203",
            "byteOffset": 37776,
            "byteStride": 12,
            "componentType": 5126,
            "count": 2,
            "max": [
                0.437124,
                14.4798,
                13.5
            ],
            "min": [
                0.437124,
                14.4798,
                13.3
            ],
            "type": "VEC3"
        },
        "accessor_36": {
            "bufferView": "bufferView_202",
            "byteOffset": 0,
            "byteStride": 0,
            "componentType": 5123,
            "count": 24,
            "type": "SCALAR"
        },
        "accessor_38": {
            "bufferView": "bufferView_203",
            "byteOffset": 0,
            "byteStride": 12,
            "componentType": 5126,
            "count": 16,
            "max": [
                14.4071,
                1.66806,
                6.6
            ],
            "min": [
                8.78772,
                0.722811,
                4.85
            ],
            "type": "VEC3"
        },
        "accessor_40": {
            "bufferView": "bufferView_203",
            "byteOffset": 192,
            "byteStride": 12,
            "componentType": 5126,
            "count": 16,
            "max": [
                0.995227,
                0.0975829,
                1
            ],
            "min": [
                -0.995227,
                -0.0975829,
                -1
            ],
            "type": "VEC3"
        },
        "accessor_56": {
            "bufferView": "bufferView_202",
            "byteOffset": 48,
            "byteStride": 0,
            "componentType": 5123,
            "count": 24,
            "type": "SCALAR"
        },
        "accessor_58": {
            "bufferView": "bufferView_203",
            "byteOffset": 384,
            "byteStride": 12,
            "componentType": 5126,
            "count": 16,
            "max": [
                21.1818,
                2.33232,
                6.6
            ],
            "min": [
                15.5624,
                1.38707,
                4.85
            ],
            "type": "VEC3"
        },
        "accessor_60": {
            "bufferView": "bufferView_203",
            "byteOffset": 576,
            "byteStride": 12,
            "componentType": 5126,
            "count": 16,
            "max": [
                0.995227,
                0.0975829,
                1
            ],
            "min": [
                -0.995227,
                -0.0975829,
                -1
            ],
            "type": "VEC3"
        },
        "accessor_76": {
            "bufferView": "bufferView_202",
            "byteOffset": 96,
            "byteStride": 0,
            "componentType": 5123,
            "count": 24,
            "type": "SCALAR"
        },
        "accessor_78": {
            "bufferView": "bufferView_203",
            "byteOffset": 768,
            "byteStride": 12,
            "componentType": 5126,
            "count": 16,
            "max": [
                27.9564,
                2.99659,
                6.6
            ],
            "min": [
                22.337,
                2.05133,
                4.85
            ],
            "type": "VEC3"
        },
        "accessor_80": {
            "bufferView": "bufferView_203",
            "byteOffset": 960,
            "byteStride": 12,
            "componentType": 5126,
            "count": 16,
            "max": [
                0.995227,
                0.0975829,
                1
            ],
            "min": [
                -0.995227,
                -0.0975829,
                -1
            ],
            "type": "VEC3"
        },
        "accessor_96": {
            "bufferView": "bufferView_202",
            "byteOffset": 144,
            "byteStride": 0,
            "componentType": 5123,
            "count": 24,
            "type": "SCALAR"
        },
        "accessor_98": {
            "bufferView": "bufferView_203",
            "byteOffset": 1152,
            "byteStride": 12,
            "componentType": 5126,
            "count": 16,
            "max": [
                34.7311,
                3.66085,
                6.6
            ],
            "min": [
                29.1117,
                2.71559,
                4.85
            ],
            "type": "VEC3"
        }
    },
    "animations": {},
    "asset": {
        "generator": "collada2gltf@cf6371beb0bdc18ba603378d5e40c966da53d385",
        "premultipliedAlpha": true,
        "profile": {
            "api": "WebGL",
            "version": "1.0.2"
        },
        "version": "1.0"
    },
    "bufferViews": {
        "bufferView_202": {
            "buffer": "\\Users\\zhiq\\Desktop\\1",
            "byteLength": 6580,
            "byteOffset": 0,
            "target": 34963
        },
        "bufferView_203": {
            "buffer": "\\Users\\zhiq\\Desktop\\1",
            "byteLength": 37800,
            "byteOffset": 6580,
            "target": 34962
        }
    },
    "buffers": {
        "\\Users\\zhiq\\Desktop\\1": {
            "byteLength": 44380,
            "type": "arraybuffer",
            "uri": "data:application/octet-stream;base64,"
        }
    },
    "cameras": {
        "ID1": {
            "name": "skp_camera_Last_Saved_SketchUp_View",
            "perspective": {
                "aspect_ratio": 0,
                "yfov": 0.610865,
                "zfar": 25.4,
                "znear": 0.0254
            },
            "type": "perspective"
        }
    },
    "materials": {
        "ID51": {
            "name": "edge_color000255",
            "technique": "technique0",
            "values": {}
        },
        "ID6": {
            "name": "material",
            "technique": "technique1",
            "values": {
                "diffuse": [
                    1,
                    1,
                    1,
                    1
                ]
            }
        }
    },
    "meshes": {
        "ID13": {
            "name": "ID13",
            "primitives": [
                {
                    "attributes": {
                        "NORMAL": "accessor_40",
                        "POSITION": "accessor_38"
                    },
                    "indices": "accessor_36",
                    "material": "ID6",
                    "mode": 4
                }
            ]
        },
        "ID19": {
            "name": "ID19",
            "primitives": [
                {
                    "attributes": {
                        "NORMAL": "accessor_60",
                        "POSITION": "accessor_58"
                    },
                    "indices": "accessor_56",
                    "material": "ID6",
                    "mode": 4
                }
            ]
        },
        "ID25": {
            "name": "ID25",
            "primitives": [
                {
                    "attributes": {
                        "NORMAL": "accessor_80",
                        "POSITION": "accessor_78"
                    },
                    "indices": "accessor_76",
                    "material": "ID6",
                    "mode": 4
                }
            ]
        },
        "ID31": {
            "name": "ID31",
            "primitives": [
                {
                    "attributes": {
                        "NORMAL": "accessor_100",
                        "POSITION": "accessor_98"
                    },
                    "indices": "accessor_96",
                    "material": "ID6",
                    "mode": 4
                }
            ]
        },
        "ID37": {
            "name": "ID37",
            "primitives": [
                {
                    "attributes": {
                        "NORMAL": "accessor_120",
                        "POSITION": "accessor_118"
                    },
                    "indices": "accessor_116",
                    "material": "ID6",
                    "mode": 4
                }
            ]
        },
        "ID43": {
            "name": "ID43",
            "primitives": [
                {
                    "attributes": {
                        "NORMAL": "accessor_140",
                        "POSITION": "accessor_138"
                    },
                    "indices": "accessor_136",
                    "material": "ID6",
                    "mode": 4
                }
            ]
        },
        "ID49": {
            "name": "ID49",
            "primitives": [
                {
                    "attributes": {
                        "POSITION": "accessor_152"
                    },
                    "indices": "accessor_150",
                    "material": "ID51",
                    "mode": 1
                }
            ]
        },
        "ID5": {
            "name": "ID5",
            "primitives": [
                {
                    "attributes": {
                        "NORMAL": "accessor_20",
                        "POSITION": "accessor_18"
                    },
                    "indices": "accessor_16",
                    "material": "ID6",
                    "mode": 4
                }
            ]
        },
        "ID55": {
            "name": "ID55",
            "primitives": [
                {
                    "attributes": {
                        "POSITION": "accessor_164"
                    },
                    "indices": "accessor_162",
                    "material": "ID51",
                    "mode": 1
                }
            ]
        },
        "ID59": {
            "name": "ID59",
            "primitives": [
                {
                    "attributes": {
                        "POSITION": "accessor_176"
                    },
                    "indices": "accessor_174",
                    "material": "ID51",
                    "mode": 1
                }
            ]
        },
        "ID63": {
            "name": "ID63",
            "primitives": [
                {
                    "attributes": {
                        "POSITION": "accessor_188"
                    },
                    "indices": "accessor_186",
                    "material": "ID51",
                    "mode": 1
                }
            ]
        },
        "ID67": {
            "name": "ID67",
            "primitives": [
                {
                    "attributes": {
                        "POSITION": "accessor_200"
                    },
                    "indices": "accessor_198",
                    "material": "ID51",
                    "mode": 1
                }
            ]
        }
    },
    "nodes": {
        "ID3": {
            "children": [
                "ID4"
            ],
            "matrix": [
                1,
                0,
                0,
                0,
                0,
                1,
                0,
                0,
                0,
                0,
                1,
                0,
                59.502,
                -33.3259,
                0,
                1
            ],
            "name": "instance_0"
        },
        "ID4": {
            "children": [],
            "matrix": [
                1,
                0,
                0,
                0,
                0,
                1,
                0,
                0,
                0,
                0,
                1,
                0,
                0,
                0,
                0,
                1
            ],
            "meshes": [
                "ID5",
                "ID13",
                "ID63",
                "ID67",
                "ID19",
                "ID25",
                "ID31",
                "ID37",
                "ID43",
                "ID49",
                "ID55",
                "ID59"
            ],
            "name": ""
        },
        "node_0": {
            "children": [
                "node_1",
                "ID3"
            ],
            "matrix": [
                1,
                0,
                0,
                0,
                0,
                1,
                0,
                0,
                0,
                0,
                1,
                0,
                0,
                0,
                0,
                1
            ],
            "name": "SketchUp"
        },
        "node_1": {
            "camera": "ID1",
            "children": [],
            "matrix": [
                0.991753,
                -0.128165,
                -3.25261e-019,
                0,
                -0.000664161,
                -0.00513933,
                0.999987,
                0,
                -0.128164,
                -0.99174,
                -0.00518207,
                0,
                71.7655,
                -85.4671,
                5.39592,
                1
            ],
            "name": "skp_camera_Last_Saved_SketchUp_View"
        },
        "node_4": {
            "children": [
                "node_0"
            ],
            "matrix": [
                1,
                0,
                0,
                0,
                0,
                0,
                -1,
                0,
                0,
                1,
                0,
                0,
                0,
                0,
                0,
                1
            ],
            "name": "Y_UP_Transform"
        }
    },
    "programs": {
        "program_0": {
            "attributes": [
                "a_position"
            ],
            "fragmentShader": "\\Users\\zhiq\\Desktop\\10FS",
            "vertexShader": "\\Users\\zhiq\\Desktop\\10VS"
        },
        "program_1": {
            "attributes": [
                "a_normal",
                "a_position"
            ],
            "fragmentShader": "\\Users\\zhiq\\Desktop\\11FS",
            "vertexShader": "\\Users\\zhiq\\Desktop\\11VS"
        }
    },
    "scene": "defaultScene",
    "scenes": {
        "defaultScene": {
            "nodes": [
                "node_4"
            ]
        }
    },
    "shaders": {
        "\\Users\\zhiq\\Desktop\\10FS": {
            "type": 35632,
            "uri": "data:text/plain;base64,"
        },
        "\\Users\\zhiq\\Desktop\\10VS": {
            "type": 35633,
            "uri": "data:text/plain;base64,"
        },
        "\\Users\\zhiq\\Desktop\\11FS": {
            "type": 35632,
            "uri": "data:text/plain;base64,"
        },
        "\\Users\\zhiq\\Desktop\\11VS": {
            "type": 35633,
            "uri": "data:text/plain;base64,"
        }
    },
    "skins": {},
    "techniques": {
        "technique0": {
            "attributes": {
                "a_position": "position"
            },
            "parameters": {
                "modelViewMatrix": {
                    "semantic": "MODELVIEW",
                    "type": 35676
                },
                "position": {
                    "semantic": "POSITION",
                    "type": 35665
                },
                "projectionMatrix": {
                    "semantic": "PROJECTION",
                    "type": 35676
                }
            },
            "program": "program_0",
            "states": {
                "enable": [
                    2929,
                    2884
                ]
            },
            "uniforms": {
                "u_modelViewMatrix": "modelViewMatrix",
                "u_projectionMatrix": "projectionMatrix"
            }
        },
        "technique1": {
            "attributes": {
                "a_normal": "normal",
                "a_position": "position"
            },
            "parameters": {
                "diffuse": {
                    "type": 35666
                },
                "modelViewMatrix": {
                    "semantic": "MODELVIEW",
                    "type": 35676
                },
                "normal": {
                    "semantic": "NORMAL",
                    "type": 35665
                },
                "normalMatrix": {
                    "semantic": "MODELVIEWINVERSETRANSPOSE",
                    "type": 35675
                },
                "position": {
                    "semantic": "POSITION",
                    "type": 35665
                },
                "projectionMatrix": {
                    "semantic": "PROJECTION",
                    "type": 35676
                }
            },
            "program": "program_1",
            "states": {
                "enable": [
                    2929,
                    2884
                ]
            },
            "uniforms": {
                "u_diffuse": "diffuse",
                "u_modelViewMatrix": "modelViewMatrix",
                "u_normalMatrix": "normalMatrix",
                "u_projectionMatrix": "projectionMatrix"
            }
        }
    }
}