{
    "accessors": {
        "accessor_16": {
            "bufferView": "bufferView_94",
            "byteOffset": 2260,
            "byteStride": 0,
            "componentType": 5123,
            "count": 720,
            "type": "SCALAR"
        },
        "accessor_18": {
            "bufferView": "bufferView_95",
            "byteOffset": 9384,
            "byteStride": 12,
            "componentType": 5126,
            "count": 240,
            "max": [
                1.19809,
                1.19809,
                0.1
            ],
            "min": [
                0,
                0,
                0
            ],
            "type": "VEC3"
        },
        "accessor_20": {
            "bufferView": "bufferView_95",
            "byteOffset": 12264,
            "byteStride": 12,
            "componentType": 5126,
            "count": 240,
            "max": [
                0.998408,
                0.998408,
                1
            ],
            "min": [
                -0.998408,
                -0.998408,
                -1
            ],
            "type": "VEC3"
        },
        "accessor_36": {
            "bufferView": "bufferView_94",
            "byteOffset": 0,
            "byteStride": 0,
            "componentType": 5123,
            "count": 654,
            "type": "SCALAR"
        },
        "accessor_38": {
            "bufferView": "bufferView_95",
            "byteOffset": 0,
            "byteStride": 12,
            "componentType": 5126,
            "count": 220,
            "max": [
                0.996179,
                0.996179,
                31
            ],
            "min": [
                0.20191,
                0.20191,
                0
            ],
            "type": "VEC3"
        },
        "accessor_40": {
            "bufferView": "bufferView_95",
            "byteOffset": 2640,
            "byteStride": 12,
            "componentType": 5126,
            "count": 220,
            "max": [
                0.992836,
                0.992836,
                1
            ],
            "min": [
                -0.992836,
                -0.992836,
                -9.19775e-019
            ],
            "type": "VEC3"
        },
        "accessor_56": {
            "bufferView": "bufferView_94",
            "byteOffset": 1308,
            "byteStride": 0,
            "componentType": 5123,
            "count": 438,
            "type": "SCALAR"
        },
        "accessor_58": {
            "bufferView": "bufferView_95",
            "byteOffset": 5280,
            "byteStride": 12,
            "componentType": 5126,
            "count": 146,
            "max": [
                1.11268,
                1.11268,
                30.1
            ],
            "min": [
                0.0854133,
                0.0854133,
                30
            ],
            "type": "VEC3"
        },
        "accessor_60": {
            "bufferView": "bufferView_95",
            "byteOffset": 7032,
            "byteStride": 12,
            "componentType": 5126,
            "count": 146,
            "max": [
                0.992836,
                0.992836,
                1
            ],
            "min": [
                -0.992836,
                -0.992836,
                -1
            ],
            "type": "VEC3"
        },
        "accessor_76": {
            "bufferView": "bufferView_94",
            "byteOffset": 2184,
            "byteStride": 0,
            "componentType": 5123,
            "count": 36,
            "type": "SCALAR"
        },
        "accessor_78": {
            "bufferView": "bufferView_95",
            "byteOffset": 8784,
            "byteStride": 12,
            "componentType": 5126,
            "count": 24,
            "max": [
                0.539725,
                0.415119,
                29.9979
            ],
            "min": [
                0.435531,
                0.103127,
                29.4576
            ],
            "type": "VEC3"
        },
        "accessor_80": {
            "bufferView": "bufferView_95",
            "byteOffset": 9072,
            "byteStride": 12,
            "componentType": 5126,
            "count": 24,
            "max": [
                0.96373,
                0.96373,
                1
            ],
            "min": [
                -0.96373,
                -0.96373,
                -1
            ],
            "type": "VEC3"
        },
        "accessor_90": {
            "bufferView": "bufferView_94",
            "byteOffset": 2256,
            "byteStride": 0,
            "componentType": 5123,
            "count": 2,
            "type": "SCALAR"
        },
        "accessor_92": {
            "bufferView": "bufferView_95",
            "byteOffset": 9360,
            "byteStride": 12,
            "componentType": 5126,
            "count": 2,
            "max": [
                0.51903,
                0.411794,
                29.4576
            ],
            "min": [
                0.435531,
                0.108465,
                29.4555
            ],
            "type": "VEC3"
        }
    },
    "animations": {},
    "asset": {
        "generator": "collada2gltf@cf6371beb0bdc18ba603378d5e40c966da53d385",
        "premultipliedAlpha": true,
        "profile": {
            "api": "WebGL",
            "version": "1.0.2"
        },
        "version": "1.0"
    },
    "bufferViews": {
        "bufferView_94": {
            "buffer": "\\Users\\zhiq\\Desktop\\123\\01",
            "byteLength": 3700,
            "byteOffset": 0,
            "target": 34963
        },
        "bufferView_95": {
            "buffer": "\\Users\\zhiq\\Desktop\\123\\01",
            "byteLength": 15144,
            "byteOffset": 3700,
            "target": 34962
        }
    },
    "buffers": {
        "\\Users\\zhiq\\Desktop\\123\\01": {
            "byteLength": 18844,
            "type": "arraybuffer",
            "uri": "data:application/octet-stream;base64,"
        }
    },
    "cameras": {
        "ID1": {
            "name": "skp_camera_Last_Saved_SketchUp_View",
            "perspective": {
                "aspect_ratio": 0,
                "yfov": 0.610865,
                "zfar": 25.4,
                "znear": 0.0254
            },
            "type": "perspective"
        }
    },
    "materials": {
        "ID33": {
            "name": "edge_color000255",
            "technique": "technique0",
            "values": {}
        },
        "ID6": {
            "name": "material",
            "technique": "technique1",
            "values": {
                "diffuse": [
                    1,
                    1,
                    1,
                    1
                ]
            }
        }
    },
    "meshes": {
        "ID13": {
            "name": "ID13",
            "primitives": [
                {
                    "attributes": {
                        "NORMAL": "accessor_40",
                        "POSITION": "accessor_38"
                    },
                    "indices": "accessor_36",
                    "material": "ID6",
                    "mode": 4
                }
            ]
        },
        "ID19": {
            "name": "ID19",
            "primitives": [
                {
                    "attributes": {
                        "NORMAL": "accessor_60",
                        "POSITION": "accessor_58"
                    },
                    "indices": "accessor_56",
                    "material": "ID6",
                    "mode": 4
                }
            ]
        },
        "ID25": {
            "name": "ID25",
            "primitives": [
                {
                    "attributes": {
                        "NORMAL": "accessor_80",
                        "POSITION": "accessor_78"
                    },
                    "indices": "accessor_76",
                    "material": "ID6",
                    "mode": 4
                }
            ]
        },
        "ID31": {
            "name": "ID31",
            "primitives": [
                {
                    "attributes": {
                        "POSITION": "accessor_92"
                    },
                    "indices": "accessor_90",
                    "material": "ID33",
                    "mode": 1
                }
            ]
        },
        "ID5": {
            "name": "ID5",
            "primitives": [
                {
                    "attributes": {
                        "NORMAL": "accessor_20",
                        "POSITION": "accessor_18"
                    },
                    "indices": "accessor_16",
                    "material": "ID6",
                    "mode": 4
                }
            ]
        }
    },
    "nodes": {
        "ID3": {
            "children": [
                "ID4"
            ],
            "matrix": [
                1,
                0,
                0,
                0,
                0,
                1,
                0,
                0,
                0,
                0,
                1,
                0,
                119.106,
                -50.2309,
                0,
                1
            ],
            "name": "instance_0"
        },
        "ID4": {
            "children": [],
            "matrix": [
                1,
                0,
                0,
                0,
                0,
                1,
                0,
                0,
                0,
                0,
                1,
                0,
                0,
                0,
                0,
                1
            ],
            "meshes": [
                "ID5",
                "ID13",
                "ID19",
                "ID25",
                "ID31"
            ],
            "name": "信号塔"
        },
        "node_0": {
            "children": [
                "node_1",
                "ID3"
            ],
            "matrix": [
                1,
                0,
                0,
                0,
                0,
                1,
                0,
                0,
                0,
                0,
                1,
                0,
                0,
                0,
                0,
                1
            ],
            "name": "SketchUp"
        },
        "node_1": {
            "camera": "ID1",
            "children": [],
            "matrix": [
                0.978828,
                0.204683,
                -2.63678e-016,
                0,
                -0.151976,
                0.726774,
                0.669852,
                0,
                0.137107,
                -0.655671,
                0.742494,
                0,
                110.215,
                -158.167,
                157.634,
                1
            ],
            "name": "skp_camera_Last_Saved_SketchUp_View"
        },
        "node_4": {
            "children": [
                "node_0"
            ],
            "matrix": [
                1,
                0,
                0,
                0,
                0,
                0,
                -1,
                0,
                0,
                1,
                0,
                0,
                0,
                0,
                0,
                1
            ],
            "name": "Y_UP_Transform"
        }
    },
    "programs": {
        "program_0": {
            "attributes": [
                "a_position"
            ],
            "fragmentShader": "\\Users\\zhiq\\Desktop\\123\\010FS",
            "vertexShader": "\\Users\\zhiq\\Desktop\\123\\010VS"
        },
        "program_1": {
            "attributes": [
                "a_normal",
                "a_position"
            ],
            "fragmentShader": "\\Users\\zhiq\\Desktop\\123\\011FS",
            "vertexShader": "\\Users\\zhiq\\Desktop\\123\\011VS"
        }
    },
    "scene": "defaultScene",
    "scenes": {
        "defaultScene": {
            "nodes": [
                "node_4"
            ]
        }
    },
    "shaders": {
        "\\Users\\zhiq\\Desktop\\123\\010FS": {
            "type": 35632,
            "uri": "data:text/plain;base64,"
        },
        "\\Users\\zhiq\\Desktop\\123\\010VS": {
            "type": 35633,
            "uri": "data:text/plain;base64,"
        },
        "\\Users\\zhiq\\Desktop\\123\\011FS": {
            "type": 35632,
            "uri": "data:text/plain;base64,"
        },
        "\\Users\\zhiq\\Desktop\\123\\011VS": {
            "type": 35633,
            "uri": "data:text/plain;base64,"
        }
    },
    "skins": {},
    "techniques": {
        "technique0": {
            "attributes": {
                "a_position": "position"
            },
            "parameters": {
                "modelViewMatrix": {
                    "semantic": "MODELVIEW",
                    "type": 35676
                },
                "position": {
                    "semantic": "POSITION",
                    "type": 35665
                },
                "projectionMatrix": {
                    "semantic": "PROJECTION",
                    "type": 35676
                }
            },
            "program": "program_0",
            "states": {
                "enable": [
                    2929,
                    2884
                ]
            },
            "uniforms": {
                "u_modelViewMatrix": "modelViewMatrix",
                "u_projectionMatrix": "projectionMatrix"
            }
        },
        "technique1": {
            "attributes": {
                "a_normal": "normal",
                "a_position": "position"
            },
            "parameters": {
                "diffuse": {
                    "type": 35666
                },
                "modelViewMatrix": {
                    "semantic": "MODELVIEW",
                    "type": 35676
                },
                "normal": {
                    "semantic": "NORMAL",
                    "type": 35665
                },
                "normalMatrix": {
                    "semantic": "MODELVIEWINVERSETRANSPOSE",
                    "type": 35675
                },
                "position": {
                    "semantic": "POSITION",
                    "type": 35665
                },
                "projectionMatrix": {
                    "semantic": "PROJECTION",
                    "type": 35676
                }
            },
            "program": "program_1",
            "states": {
                "enable": [
                    2929,
                    2884
                ]
            },
            "uniforms": {
                "u_diffuse": "diffuse",
                "u_modelViewMatrix": "modelViewMatrix",
                "u_normalMatrix": "normalMatrix",
                "u_projectionMatrix": "projectionMatrix"
            }
        }
    }
}