{
    "accessors": {
        "accessor_40": {
            "bufferView": "bufferView_52",
            "byteOffset": 0,
            "byteStride": 0,
            "componentType": 5123,
            "count": 36,
            "type": "SCALAR"
        },
        "accessor_43": {
            "bufferView": "bufferView_52",
            "byteOffset": 72,
            "byteStride": 0,
            "componentType": 5123,
            "count": 36,
            "type": "SCALAR"
        },
        "accessor_46": {
            "bufferView": "bufferView_52",
            "byteOffset": 144,
            "byteStride": 0,
            "componentType": 5123,
            "count": 24,
            "type": "SCALAR"
        },
        "accessor_48": {
            "bufferView": "bufferView_53",
            "byteOffset": 0,
            "byteStride": 12,
            "componentType": 5126,
            "count": 56,
            "max": [
                10,
                2,
                2
            ],
            "min": [
                0,
                0,
                0
            ],
            "type": "VEC3"
        },
        "accessor_50": {
            "bufferView": "bufferView_53",
            "byteOffset": 672,
            "byteStride": 12,
            "componentType": 5126,
            "count": 56,
            "max": [
                1,
                1,
                1
            ],
            "min": [
                -1,
                -1,
                -1
            ],
            "type": "VEC3"
        }
    },
    "animations": {},
    "asset": {
        "generator": "collada2gltf@cf6371beb0bdc18ba603378d5e40c966da53d385",
        "premultipliedAlpha": true,
        "profile": {
            "api": "WebGL",
            "version": "1.0.2"
        },
        "version": "1.0"
    },
    "bufferViews": {
        "bufferView_52": {
            "buffer": "\\Users\\zhiq\\Desktop\\test\\factory",
            "byteLength": 192,
            "byteOffset": 0,
            "target": 34963
        },
        "bufferView_53": {
            "buffer": "\\Users\\zhiq\\Desktop\\test\\factory",
            "byteLength": 1344,
            "byteOffset": 192,
            "target": 34962
        }
    },
    "buffers": {
        "\\Users\\zhiq\\Desktop\\test\\factory": {
            "byteLength": 1536,
            "type": "arraybuffer",
            "uri": "data:application/octet-stream;base64,"
        }
    },
    "cameras": {
        "ID1": {
            "name": "skp_camera_Last_Saved_SketchUp_View",
            "perspective": {
                "aspect_ratio": 0,
                "yfov": 0.610865,
                "zfar": 25.4,
                "znear": 0.0254
            },
            "type": "perspective"
        }
    },
    "materials": {
        "ID10": {
            "name": "material_0",
            "technique": "technique0",
            "values": {
                "diffuse": [
                    0.643137,
                    0.698039,
                    0.733333,
                    1
                ]
            }
        },
        "ID13": {
            "name": "edge_color000255",
            "technique": "technique1",
            "values": {}
        },
        "ID4": {
            "name": "material",
            "technique": "technique0",
            "values": {
                "diffuse": [
                    1,
                    1,
                    1,
                    1
                ]
            }
        }
    },
    "meshes": {
        "ID3": {
            "name": "ID3",
            "primitives": [
                {
                    "attributes": {
                        "NORMAL": "accessor_50",
                        "POSITION": "accessor_48"
                    },
                    "indices": "accessor_40",
                    "material": "ID4",
                    "mode": 4
                },
                {
                    "attributes": {
                        "NORMAL": "accessor_50",
                        "POSITION": "accessor_48"
                    },
                    "indices": "accessor_43",
                    "material": "ID10",
                    "mode": 4
                },
                {
                    "attributes": {
                        "NORMAL": "accessor_50",
                        "POSITION": "accessor_48"
                    },
                    "indices": "accessor_46",
                    "material": "ID13",
                    "mode": 1
                }
            ]
        }
    },
    "nodes": {
        "node_0": {
            "children": [
                "node_1"
            ],
            "matrix": [
                1,
                0,
                0,
                0,
                0,
                1,
                0,
                0,
                0,
                0,
                1,
                0,
                0,
                0,
                0,
                1
            ],
            "meshes": [
                "ID3"
            ],
            "name": "SketchUp"
        },
        "node_1": {
            "camera": "ID1",
            "children": [],
            "matrix": [
                0.407243,
                0.91332,
                2.77556e-017,
                0,
                -0.297347,
                0.132585,
                0.945519,
                0,
                0.863561,
                -0.385056,
                0.325568,
                0,
                67.9677,
                -25.7661,
                19.0021,
                1
            ],
            "name": "skp_camera_Last_Saved_SketchUp_View"
        },
        "node_2": {
            "children": [
                "node_0"
            ],
            "matrix": [
                1,
                0,
                0,
                0,
                0,
                0,
                -1,
                0,
                0,
                1,
                0,
                0,
                0,
                0,
                0,
                1
            ],
            "name": "Y_UP_Transform"
        }
    },
    "programs": {
        "program_0": {
            "attributes": [
                "a_normal",
                "a_position"
            ],
            "fragmentShader": "\\Users\\zhiq\\Desktop\\test\\factory0FS",
            "vertexShader": "\\Users\\zhiq\\Desktop\\test\\factory0VS"
        },
        "program_1": {
            "attributes": [
                "a_normal",
                "a_position"
            ],
            "fragmentShader": "\\Users\\zhiq\\Desktop\\test\\factory1FS",
            "vertexShader": "\\Users\\zhiq\\Desktop\\test\\factory1VS"
        }
    },
    "scene": "defaultScene",
    "scenes": {
        "defaultScene": {
            "nodes": [
                "node_2"
            ]
        }
    },
    "shaders": {
        "\\Users\\zhiq\\Desktop\\test\\factory0FS": {
            "type": 35632,
            "uri": "data:text/plain;base64,"
        },
        "\\Users\\zhiq\\Desktop\\test\\factory0VS": {
            "type": 35633,
            "uri": "data:text/plain;base64,"
        },
        "\\Users\\zhiq\\Desktop\\test\\factory1FS": {
            "type": 35632,
            "uri": "data:text/plain;base64,"
        },
        "\\Users\\zhiq\\Desktop\\test\\factory1VS": {
            "type": 35633,
            "uri": "data:text/plain;base64,"
        }
    },
    "skins": {},
    "techniques": {
        "technique0": {
            "attributes": {
                "a_normal": "normal",
                "a_position": "position"
            },
            "parameters": {
                "diffuse": {
                    "type": 35666
                },
                "modelViewMatrix": {
                    "semantic": "MODELVIEW",
                    "type": 35676
                },
                "normal": {
                    "semantic": "NORMAL",
                    "type": 35665
                },
                "normalMatrix": {
                    "semantic": "MODELVIEWINVERSETRANSPOSE",
                    "type": 35675
                },
                "position": {
                    "semantic": "POSITION",
                    "type": 35665
                },
                "projectionMatrix": {
                    "semantic": "PROJECTION",
                    "type": 35676
                }
            },
            "program": "program_0",
            "states": {
                "enable": [
                    2929,
                    2884
                ]
            },
            "uniforms": {
                "u_diffuse": "diffuse",
                "u_modelViewMatrix": "modelViewMatrix",
                "u_normalMatrix": "normalMatrix",
                "u_projectionMatrix": "projectionMatrix"
            }
        },
        "technique1": {
            "attributes": {
                "a_normal": "normal",
                "a_position": "position"
            },
            "parameters": {
                "modelViewMatrix": {
                    "semantic": "MODELVIEW",
                    "type": 35676
                },
                "normal": {
                    "semantic": "NORMAL",
                    "type": 35665
                },
                "normalMatrix": {
                    "semantic": "MODELVIEWINVERSETRANSPOSE",
                    "type": 35675
                },
                "position": {
                    "semantic": "POSITION",
                    "type": 35665
                },
                "projectionMatrix": {
                    "semantic": "PROJECTION",
                    "type": 35676
                }
            },
            "program": "program_1",
            "states": {
                "enable": [
                    2929,
                    2884
                ]
            },
            "uniforms": {
                "u_modelViewMatrix": "modelViewMatrix",
                "u_normalMatrix": "normalMatrix",
                "u_projectionMatrix": "projectionMatrix"
            }
        }
    }
}